<svg width="281" height="464" viewBox="0 0 281 464" fill="none" xmlns="http://www.w3.org/2000/svg">
<path d="M189.411 4.92731H143.617V50.7461H189.411V4.92731Z" fill="white"/>
<path d="M97.8222 4.92731H52.0278V50.7461H97.8222V4.92731Z" fill="white"/>
<path d="M189.411 50.7461H143.617V96.5649H189.411V50.7461Z" fill="white"/>
<path d="M281 50.7461H235.206V96.5649H281V50.7461Z" fill="white"/>
<path d="M97.8222 50.7461H52.0278V96.5649H97.8222V50.7461Z" fill="white"/>
<path d="M189.411 96.5649H143.617V142.384H189.411V96.5649Z" fill="white"/>
<path d="M281 96.5649H235.206V142.384H281V96.5649Z" fill="white"/>
<path d="M97.8222 96.5649H52.0278V142.384H97.8222V96.5649Z" fill="white"/>
<path d="M189.411 142.384H143.617V188.203H189.411V142.384Z" fill="white"/>
<path d="M235.206 142.384H189.411V188.203H235.206V142.384Z" fill="white"/>
<path d="M281 142.384H235.206V188.203H281V142.384Z" fill="white"/>
<path d="M52.028 142.384H6.23364V188.203H52.028V142.384Z" fill="white"/>
<path d="M97.8222 142.384H52.0278V188.203H97.8222V142.384Z" fill="white"/>
<path d="M143.617 142.384H97.8223V188.203H143.617V142.384Z" fill="white"/>
<path d="M189.411 188.203H143.617V234.021H189.411V188.203Z" fill="white"/>
<path d="M281 188.203H235.206V234.021H281V188.203Z" fill="white"/>
<path d="M97.8222 188.203H52.0278V234.021H97.8222V188.203Z" fill="white"/>
<path d="M189.411 234.021H143.617V279.84H189.411V234.021Z" fill="white"/>
<path d="M281 234.021H235.206V279.84H281V234.021Z" fill="white"/>
<path d="M97.8222 234.021H52.0278V279.84H97.8222V234.021Z" fill="white"/>
<path d="M189.411 279.84H143.617V325.659H189.411V279.84Z" fill="white"/>
<path d="M281 279.84H235.206V325.659H281V279.84Z" fill="white"/>
<path d="M97.8222 279.84H52.0278V325.659H97.8222V279.84Z" fill="white"/>
<path d="M281 325.659H235.206V371.478H281V325.659Z" fill="white"/>
<path d="M97.8222 325.659H52.0278V371.478H97.8222V325.659Z" fill="white"/>
<path d="M281 371.478H235.206V417.297H281V371.478Z" fill="white"/>
<path d="M97.8222 371.478H52.0278V417.297H97.8222V371.478Z" fill="white"/>
<path d="M97.8222 417.297H52.0278V463.115H97.8222V417.297Z" fill="white"/>
<path d="M184.177 1H138.383V46.8188H184.177V1Z" fill="#E399DC" stroke="white"/>
<path d="M165.034 27.1456H162.05V19.3565L159.894 24.4112H157.823L155.667 19.3565V27.1456H152.839V15.5128H156.323L158.941 21.3487L161.55 15.5128H165.034V27.1456Z" fill="white"/>
<path d="M140.887 9.9146L139.397 6.9446H142.367L140.887 9.9146ZM147.807 8.15363C147.963 8.2936 148.092 8.46938 148.193 8.68097C148.294 8.89256 148.344 9.166 148.344 9.50128C148.344 9.83331 148.284 10.1377 148.163 10.4144C148.043 10.6911 147.874 10.9319 147.656 11.137C147.411 11.3649 147.123 11.5342 146.791 11.6448C146.462 11.7523 146.101 11.806 145.707 11.806C145.304 11.806 144.906 11.7571 144.516 11.6595C144.125 11.5651 143.805 11.4609 143.554 11.347V10.3265H143.627C143.904 10.5088 144.229 10.6601 144.604 10.7806C144.978 10.901 145.339 10.9612 145.688 10.9612C145.893 10.9612 146.111 10.9271 146.342 10.8587C146.573 10.7903 146.76 10.6894 146.904 10.556C147.053 10.4127 147.164 10.2549 147.236 10.0823C147.31 9.90981 147.348 9.69171 147.348 9.42804C147.348 9.16762 147.306 8.95278 147.221 8.78351C147.14 8.61098 147.026 8.47589 146.879 8.37823C146.733 8.27732 146.555 8.20896 146.347 8.17316C146.139 8.13409 145.914 8.11456 145.673 8.11456H145.234V7.30402H145.575C146.07 7.30402 146.464 7.20148 146.757 6.9964C147.053 6.78807 147.201 6.48533 147.201 6.0882C147.201 5.91241 147.164 5.75942 147.089 5.62921C147.014 5.49575 146.91 5.3867 146.777 5.30206C146.637 5.21743 146.487 5.15883 146.327 5.12628C146.168 5.09373 145.987 5.07745 145.785 5.07745C145.476 5.07745 145.147 5.13279 144.799 5.24347C144.451 5.35415 144.122 5.5104 143.813 5.71222H143.764V4.69171C143.995 4.57778 144.303 4.47361 144.687 4.37921C145.074 4.28156 145.448 4.23273 145.81 4.23273C146.165 4.23273 146.477 4.26528 146.747 4.33038C147.017 4.39549 147.262 4.49965 147.48 4.64288C147.714 4.79913 147.892 4.98794 148.012 5.20929C148.132 5.43064 148.193 5.68943 148.193 5.98566C148.193 6.3893 148.049 6.74249 147.763 7.04523C147.48 7.34471 147.144 7.53351 146.757 7.61163V7.67999C146.913 7.70603 147.092 7.76137 147.294 7.84601C147.496 7.92739 147.667 8.02993 147.807 8.15363Z" fill="white"/>
<path d="M92.5886 1H46.7942V46.8188H92.5886V1Z" fill="#E399DC" stroke="white"/>
<path d="M72.4346 27.1456H64.0205V15.5128H72.4346V17.7628H67.0049V19.7706H72.0439V22.0206H67.0049V24.8956H72.4346V27.1456Z" fill="white"/>
<path d="M49.2985 9.9146L47.8085 6.9446H50.7785L49.2985 9.9146ZM56.8577 11.6546H51.9358V10.6341C52.2776 10.3411 52.6194 10.0482 52.9612 9.75519C53.3062 9.46222 53.6269 9.17088 53.9231 8.88116C54.5481 8.2757 54.9762 7.79555 55.2073 7.44073C55.4384 7.08266 55.554 6.69692 55.554 6.28351C55.554 5.9059 55.4286 5.61131 55.178 5.39972C54.9306 5.18488 54.5839 5.07745 54.1379 5.07745C53.8417 5.07745 53.5211 5.12954 53.176 5.2337C52.831 5.33787 52.4941 5.49738 52.1653 5.71222H52.1165V4.68683C52.3476 4.5729 52.6552 4.46873 53.0393 4.37433C53.4267 4.27993 53.801 4.23273 54.1624 4.23273C54.9078 4.23273 55.4921 4.41339 55.9153 4.77472C56.3385 5.13279 56.55 5.61945 56.55 6.23468C56.55 6.51137 56.5142 6.77016 56.4426 7.01105C56.3743 7.24868 56.2717 7.47491 56.135 7.68976C56.0081 7.89158 55.8583 8.09015 55.6858 8.28546C55.5165 8.48077 55.3098 8.69725 55.0657 8.93488C54.7174 9.27667 54.3577 9.6087 53.9866 9.93097C53.6155 10.25 53.2688 10.5462 52.9465 10.8196H56.8577V11.6546Z" fill="white"/>
<path d="M184.177 46.8188H138.383V92.6377H184.177V46.8188Z" fill="#E399DC" stroke="white"/>
<path d="M165.174 67.1519C165.174 69.0061 164.643 70.48 163.58 71.5738C162.518 72.6623 161.049 73.2066 159.174 73.2066C157.304 73.2066 155.838 72.6623 154.775 71.5738C153.713 70.48 153.182 69.0061 153.182 67.1519C153.182 65.2821 153.713 63.8056 154.775 62.7222C155.838 61.6337 157.304 61.0894 159.174 61.0894C161.038 61.0894 162.505 61.6337 163.572 62.7222C164.64 63.8056 165.174 65.2821 165.174 67.1519ZM161.197 70.0972C161.489 69.7431 161.705 69.3264 161.846 68.8472C161.986 68.3629 162.057 67.7951 162.057 67.1441C162.057 66.4462 161.976 65.8524 161.814 65.3629C161.653 64.8733 161.442 64.4774 161.182 64.1754C160.916 63.8629 160.609 63.6363 160.26 63.4957C159.916 63.355 159.557 63.2847 159.182 63.2847C158.801 63.2847 158.442 63.3524 158.104 63.4879C157.77 63.6233 157.463 63.8472 157.182 64.1597C156.921 64.4514 156.708 64.855 156.541 65.3707C156.38 65.8811 156.299 66.4748 156.299 67.1519C156.299 67.8446 156.377 68.4358 156.533 68.9254C156.695 69.4097 156.906 69.8056 157.166 70.1129C157.426 70.4201 157.731 70.6467 158.08 70.7925C158.429 70.9384 158.796 71.0113 159.182 71.0113C159.567 71.0113 159.934 70.9384 160.283 70.7925C160.632 70.6415 160.937 70.4097 161.197 70.0972Z" fill="white"/>
<path d="M275.766 46.8188H229.972V92.6377H275.766V46.8188Z" fill="#E399DC" stroke="white"/>
<path d="M255.882 63.5816H250.53V65.7457H255.491V67.9957H250.53V72.9644H247.546V61.3316H255.882V63.5816Z" fill="white"/>
<path d="M232.476 55.7334L230.986 52.7634H233.956L232.476 55.7334ZM239.62 57.4734H235.685V56.7312H237.198V51.8582H235.685V51.1941C235.89 51.1941 236.109 51.1778 236.344 51.1453C236.578 51.1095 236.756 51.059 236.876 50.9939C237.026 50.9125 237.143 50.81 237.228 50.6863C237.315 50.5593 237.366 50.3901 237.379 50.1785H238.136V56.7312H239.62V57.4734Z" fill="white"/>
<path d="M92.5886 46.8188H46.7942V92.6377H92.5886V46.8188Z" fill="#E399DC" stroke="white"/>
<path d="M73.7292 72.9644H70.2605L67.7527 69.1363L65.198 72.9644H61.8855L66.0105 67.105L61.9714 61.3316H65.4324L67.8542 64.9566L70.3464 61.3316H73.6667L69.6042 66.9879L73.7292 72.9644Z" fill="white"/>
<path d="M184.177 92.6376H138.383V138.456H184.177V92.6376Z" fill="#E399DC" stroke="white"/>
<path d="M165.068 112.979C165.068 114.062 164.821 115.033 164.326 115.893C163.831 116.747 163.206 117.403 162.451 117.861C161.883 118.205 161.261 118.445 160.584 118.58C159.907 118.715 159.105 118.783 158.177 118.783H154.076V107.15H158.295C159.243 107.15 160.06 107.231 160.748 107.393C161.435 107.549 162.013 107.773 162.482 108.064C163.284 108.554 163.914 109.215 164.373 110.049C164.836 110.877 165.068 111.854 165.068 112.979ZM161.967 112.955C161.967 112.189 161.826 111.536 161.545 110.994C161.269 110.447 160.829 110.02 160.224 109.713C159.917 109.562 159.602 109.46 159.279 109.408C158.961 109.351 158.48 109.322 157.834 109.322H157.076V116.604H157.834C158.547 116.604 159.071 116.572 159.404 116.51C159.737 116.442 160.063 116.322 160.381 116.15C160.927 115.838 161.329 115.421 161.584 114.9C161.839 114.374 161.967 113.726 161.967 112.955Z" fill="white"/>
<path d="M275.766 92.6376H229.972V138.456H275.766V92.6376Z" fill="#E399DC" stroke="white"/>
<path d="M256.069 118.783H247.679V107.15H250.679V116.533H256.069V118.783Z" fill="white"/>
<path d="M92.5886 92.6376H46.7942V138.456H92.5886V92.6376Z" fill="#E399DC" stroke="white"/>
<path d="M73.1426 109.4H69.5098V118.783H66.5098V109.4H62.877V107.15H73.1426V109.4Z" fill="white"/>
<path d="M184.177 138.456H138.383V184.275H184.177V138.456Z" fill="#E399DC" stroke="white"/>
<path d="M164.448 160.391C164.448 161.829 164.01 162.93 163.135 163.696C162.26 164.461 160.971 164.844 159.268 164.844C157.565 164.844 156.276 164.461 155.401 163.696C154.531 162.93 154.096 161.831 154.096 160.399V152.969H157.112V160.227C157.112 161.034 157.281 161.636 157.619 162.032C157.958 162.428 158.507 162.625 159.268 162.625C160.018 162.625 160.565 162.435 160.908 162.055C161.257 161.675 161.432 161.066 161.432 160.227V152.969H164.448V160.391Z" fill="white"/>
<path d="M229.972 138.456H184.178V184.275H229.972V138.456Z" fill="#E399DC" stroke="white"/>
<path d="M206.895 156.532C206.895 156.24 206.835 155.99 206.715 155.782C206.595 155.573 206.39 155.409 206.098 155.29C205.895 155.206 205.658 155.157 205.387 155.141C205.116 155.12 204.801 155.11 204.442 155.11H203.356V158.243H204.278C204.757 158.243 205.158 158.219 205.481 158.172C205.804 158.125 206.074 158.019 206.293 157.852C206.502 157.691 206.653 157.514 206.746 157.321C206.845 157.123 206.895 156.86 206.895 156.532ZM211.574 164.602H207.91L204.739 160.336H203.356V164.602H200.371V152.969H205.403C206.09 152.969 206.681 153.008 207.176 153.086C207.671 153.165 208.134 153.334 208.567 153.594C209.004 153.855 209.351 154.193 209.606 154.61C209.866 155.021 209.996 155.54 209.996 156.165C209.996 157.024 209.796 157.724 209.395 158.266C208.999 158.808 208.431 159.258 207.692 159.618L211.574 164.602Z" fill="white"/>
<path d="M275.766 138.456H229.972V184.275H275.766V138.456Z" fill="#E399DC" stroke="white"/>
<path d="M255.612 164.602H247.198V152.969H255.612V155.219H250.183V157.227H255.222V159.477H250.183V162.352H255.612V164.602Z" fill="white"/>
<path d="M46.7944 138.456H1V184.275H46.7944V138.456Z" fill="#E399DC" stroke="white"/>
<path d="M27.2524 160.946C27.2524 162.092 26.7655 163.024 25.7915 163.743C24.8228 164.456 23.505 164.813 21.8384 164.813C20.8748 164.813 20.0337 164.73 19.3149 164.563C18.6014 164.391 17.9321 164.175 17.3071 163.915V161.125H17.6353C18.255 161.62 18.9478 162 19.7134 162.266C20.4842 162.532 21.2238 162.665 21.9321 162.665C22.1144 162.665 22.354 162.649 22.6509 162.618C22.9478 162.586 23.1899 162.534 23.3774 162.461C23.6066 162.368 23.7941 162.25 23.9399 162.11C24.091 161.969 24.1665 161.761 24.1665 161.485C24.1665 161.23 24.0571 161.011 23.8384 160.829C23.6248 160.641 23.3097 160.498 22.8931 160.399C22.4556 160.295 21.992 160.198 21.5024 160.11C21.0181 160.016 20.5623 159.899 20.1353 159.758C19.1561 159.441 18.4504 159.011 18.0181 158.469C17.591 157.922 17.3774 157.245 17.3774 156.438C17.3774 155.355 17.8618 154.472 18.8306 153.79C19.8045 153.102 21.0545 152.758 22.5806 152.758C23.3462 152.758 24.1014 152.834 24.8462 152.985C25.5962 153.131 26.2446 153.316 26.7915 153.54V156.219H26.4712C26.0024 155.844 25.4269 155.532 24.7446 155.282C24.0675 155.027 23.3748 154.899 22.6665 154.899C22.4165 154.899 22.1665 154.917 21.9165 154.954C21.6717 154.985 21.4347 155.047 21.2056 155.141C21.0024 155.219 20.828 155.339 20.6821 155.5C20.5363 155.657 20.4634 155.836 20.4634 156.04C20.4634 156.347 20.5806 156.584 20.8149 156.75C21.0493 156.912 21.492 157.06 22.1431 157.196C22.5701 157.284 22.979 157.37 23.3696 157.454C23.7655 157.537 24.1899 157.652 24.6431 157.797C25.5337 158.089 26.1899 158.487 26.6118 158.993C27.0389 159.493 27.2524 160.144 27.2524 160.946Z" fill="white"/>
<path d="M2.01405 147.371V144.401L4.98405 145.891L2.01405 147.371ZM11.2292 147.065H10.1501V149.111H9.21265V147.065H5.7312V145.942L9.25171 141.841H10.1501V146.284H11.2292V147.065ZM9.21265 146.284V143.003L6.39526 146.284H9.21265Z" fill="white"/>
<path d="M92.5886 138.456H46.7942V184.275H92.5886V138.456Z" fill="#E399DC" stroke="white"/>
<path d="M72.4346 164.602H64.0205V152.969H72.4346V155.219H67.0049V157.227H72.0439V159.477H67.0049V162.352H72.4346V164.602Z" fill="white"/>
<path d="M138.383 138.456H92.5889V184.275H138.383V138.456Z" fill="#E399DC" stroke="white"/>
<path d="M114.654 164.829C113.789 164.829 112.99 164.701 112.255 164.446C111.526 164.191 110.898 163.81 110.372 163.305C109.846 162.8 109.437 162.17 109.146 161.415C108.859 160.659 108.716 159.787 108.716 158.797C108.716 157.875 108.854 157.04 109.13 156.29C109.406 155.54 109.807 154.896 110.333 154.36C110.838 153.844 111.463 153.446 112.208 153.165C112.958 152.883 113.776 152.743 114.661 152.743C115.151 152.743 115.591 152.771 115.982 152.829C116.378 152.881 116.742 152.951 117.075 153.04C117.424 153.139 117.74 153.25 118.021 153.375C118.307 153.495 118.557 153.607 118.771 153.711V156.532H118.427C118.281 156.407 118.096 156.258 117.872 156.086C117.654 155.915 117.404 155.745 117.122 155.579C116.836 155.412 116.526 155.271 116.193 155.157C115.859 155.042 115.503 154.985 115.122 154.985C114.7 154.985 114.299 155.053 113.919 155.188C113.539 155.318 113.187 155.537 112.865 155.844C112.557 156.141 112.307 156.534 112.115 157.024C111.927 157.514 111.833 158.107 111.833 158.805C111.833 159.534 111.935 160.144 112.138 160.633C112.346 161.123 112.607 161.508 112.919 161.79C113.237 162.076 113.591 162.282 113.982 162.407C114.372 162.527 114.758 162.586 115.138 162.586C115.503 162.586 115.862 162.532 116.216 162.422C116.575 162.313 116.906 162.165 117.208 161.977C117.463 161.826 117.7 161.665 117.919 161.493C118.138 161.321 118.318 161.172 118.458 161.047H118.771V163.829C118.479 163.959 118.2 164.081 117.935 164.196C117.669 164.31 117.391 164.409 117.099 164.493C116.719 164.602 116.362 164.685 116.029 164.743C115.695 164.8 115.237 164.829 114.654 164.829Z" fill="white"/>
<path d="M184.177 184.275H138.383V230.094H184.177V184.275Z" fill="#E399DC" stroke="white"/>
<path d="M164.48 210.421H156.09V198.788H159.09V208.171H164.48V210.421Z" fill="white"/>
<path d="M275.766 184.275H229.972V230.094H275.766V184.275Z" fill="#E399DC" stroke="white"/>
<path d="M256.907 210.421H253.438L250.93 206.593L248.375 210.421H245.063L249.188 204.561L245.149 198.788H248.61L251.032 202.413L253.524 198.788H256.844L252.782 204.444L256.907 210.421Z" fill="white"/>
<path d="M92.5886 184.275H46.7942V230.094H92.5886V184.275Z" fill="#E399DC" stroke="white"/>
<path d="M72.8916 210.421H70.001L65.0635 202.436V210.421H62.3135V198.788H65.8994L70.1416 205.452V198.788H72.8916V210.421Z" fill="white"/>
<path d="M184.177 230.094H138.383V275.913H184.177V230.094Z" fill="#E399DC" stroke="white"/>
<path d="M165.388 256.24H162.287L161.482 253.888H157.169L156.365 256.24H153.341L157.638 244.607H161.091L165.388 256.24ZM160.755 251.755L159.326 247.583L157.896 251.755H160.755Z" fill="white"/>
<path d="M275.766 230.094H229.972V275.913H275.766V230.094Z" fill="#E399DC" stroke="white"/>
<path d="M254.929 256.24H248.116V254.177H250.022V246.669H248.116V244.607H254.929V246.669H253.022V254.177H254.929V256.24Z" fill="white"/>
<path d="M92.5886 230.094H46.7942V275.913H92.5886V230.094Z" fill="#E399DC" stroke="white"/>
<path d="M73.4792 250.435C73.4792 251.518 73.2319 252.49 72.7371 253.349C72.2423 254.203 71.6173 254.859 70.8621 255.318C70.2944 255.662 69.672 255.901 68.9949 256.037C68.3178 256.172 67.5157 256.24 66.5886 256.24H62.4871V244.607H66.7058C67.6537 244.607 68.4714 244.688 69.1589 244.849C69.8464 245.005 70.4246 245.229 70.8933 245.521C71.6954 246.011 72.3256 246.672 72.7839 247.505C73.2475 248.333 73.4792 249.31 73.4792 250.435ZM70.3777 250.412C70.3777 249.646 70.2371 248.992 69.9558 248.451C69.6798 247.904 69.2397 247.477 68.6355 247.169C68.3282 247.018 68.0131 246.917 67.6902 246.865C67.3725 246.807 66.8907 246.779 66.2449 246.779H65.4871V254.06H66.2449C66.9584 254.06 67.4819 254.029 67.8152 253.966C68.1485 253.899 68.474 253.779 68.7917 253.607C69.3386 253.294 69.7397 252.878 69.9949 252.357C70.2501 251.831 70.3777 251.182 70.3777 250.412Z" fill="white"/>
<path d="M184.177 275.913H138.383V321.732H184.177V275.913Z" fill="#E399DC" stroke="white"/>
<path d="M161.1 293.988C161.1 293.696 161.04 293.446 160.921 293.238C160.801 293.03 160.595 292.866 160.303 292.746C160.1 292.663 159.863 292.613 159.593 292.598C159.322 292.577 159.007 292.566 158.647 292.566H157.561V295.699H158.483C158.962 295.699 159.363 295.676 159.686 295.629C160.009 295.582 160.28 295.475 160.499 295.308C160.707 295.147 160.858 294.97 160.952 294.777C161.051 294.579 161.1 294.316 161.1 293.988ZM165.78 302.058H162.116L158.944 297.793H157.561V302.058H154.577V290.426H159.608C160.296 290.426 160.887 290.465 161.382 290.543C161.876 290.621 162.34 290.79 162.772 291.051C163.21 291.311 163.556 291.65 163.811 292.066C164.072 292.478 164.202 292.996 164.202 293.621C164.202 294.48 164.001 295.181 163.6 295.723C163.205 296.264 162.637 296.715 161.897 297.074L165.78 302.058Z" fill="white"/>
<path d="M275.766 275.913H229.972V321.732H275.766V275.913Z" fill="#E399DC" stroke="white"/>
<path d="M256.334 298.496C256.334 299.058 256.219 299.561 255.99 300.004C255.766 300.446 255.456 300.814 255.06 301.105C254.602 301.449 254.097 301.694 253.545 301.84C252.998 301.986 252.302 302.058 251.459 302.058H246.381V290.426H250.896C251.834 290.426 252.519 290.457 252.951 290.519C253.388 290.582 253.821 290.72 254.248 290.933C254.691 291.157 255.019 291.46 255.232 291.84C255.451 292.215 255.56 292.644 255.56 293.129C255.56 293.691 255.412 294.189 255.115 294.621C254.818 295.048 254.399 295.381 253.857 295.621V295.683C254.618 295.835 255.219 296.147 255.662 296.621C256.11 297.095 256.334 297.72 256.334 298.496ZM252.49 293.715C252.49 293.522 252.441 293.329 252.342 293.137C252.248 292.944 252.079 292.801 251.834 292.707C251.615 292.624 251.342 292.579 251.013 292.574C250.691 292.564 250.235 292.558 249.646 292.558H249.365V295.019H249.834C250.308 295.019 250.711 295.012 251.045 294.996C251.378 294.98 251.641 294.928 251.834 294.84C252.105 294.72 252.282 294.566 252.365 294.379C252.448 294.186 252.49 293.965 252.49 293.715ZM253.224 298.449C253.224 298.079 253.151 297.795 253.006 297.598C252.865 297.394 252.623 297.243 252.279 297.144C252.045 297.077 251.722 297.04 251.31 297.035C250.899 297.03 250.469 297.027 250.021 297.027H249.365V299.926H249.584C250.427 299.926 251.032 299.923 251.396 299.918C251.761 299.913 252.097 299.845 252.404 299.715C252.717 299.585 252.93 299.413 253.045 299.199C253.164 298.98 253.224 298.73 253.224 298.449Z" fill="white"/>
<path d="M92.5886 275.913H46.7942V321.732H92.5886V275.913Z" fill="#E399DC" stroke="white"/>
<path d="M71.751 302.058H64.9385V299.996H66.8447V292.488H64.9385V290.426H71.751V292.488H69.8447V299.996H71.751V302.058Z" fill="white"/>
<path d="M275.766 321.732H229.972V367.551H275.766V321.732Z" fill="#E399DC" stroke="white"/>
<path d="M256.069 347.877H247.679V336.245H250.679V345.627H256.069V347.877Z" fill="white"/>
<path d="M92.5886 321.732H46.7942V367.551H92.5886V321.732Z" fill="#E399DC" stroke="white"/>
<path d="M73.156 344.315C73.156 344.877 73.0414 345.38 72.8123 345.823C72.5883 346.265 72.2784 346.633 71.8826 346.924C71.4242 347.268 70.919 347.513 70.3669 347.659C69.8201 347.804 69.1248 347.877 68.281 347.877H63.2029V336.245H67.7185C68.656 336.245 69.3409 336.276 69.7732 336.338C70.2107 336.401 70.643 336.539 71.0701 336.752C71.5128 336.976 71.8409 337.278 72.0544 337.659C72.2732 338.034 72.3826 338.463 72.3826 338.948C72.3826 339.51 72.2341 340.008 71.9373 340.44C71.6404 340.867 71.2211 341.2 70.6794 341.44V341.502C71.4399 341.653 72.0414 341.966 72.4841 342.44C72.932 342.914 73.156 343.539 73.156 344.315ZM69.3123 339.534C69.3123 339.341 69.2628 339.148 69.1638 338.955C69.0701 338.763 68.9008 338.62 68.656 338.526C68.4373 338.442 68.1638 338.398 67.8357 338.393C67.5128 338.383 67.057 338.377 66.4685 338.377H66.1873V340.838H66.656C67.13 340.838 67.5336 340.83 67.8669 340.815C68.2003 340.799 68.4633 340.747 68.656 340.659C68.9268 340.539 69.1039 340.385 69.1873 340.198C69.2706 340.005 69.3123 339.784 69.3123 339.534ZM70.0466 344.268C70.0466 343.898 69.9737 343.614 69.8279 343.416C69.6873 343.213 69.4451 343.062 69.1013 342.963C68.8669 342.896 68.544 342.859 68.1326 342.854C67.7211 342.849 67.2914 342.846 66.8435 342.846H66.1873V345.745H66.406C67.2498 345.745 67.8539 345.742 68.2185 345.737C68.5831 345.731 68.919 345.664 69.2263 345.534C69.5388 345.403 69.7524 345.231 69.8669 345.018C69.9867 344.799 70.0466 344.549 70.0466 344.268Z" fill="white"/>
<path d="M275.766 367.551H229.972V413.369H275.766V367.551Z" fill="#E399DC" stroke="white"/>
<path d="M255.612 393.696H247.198V382.063H255.612V384.313H250.183V386.321H255.222V388.571H250.183V391.446H255.612V393.696Z" fill="white"/>
<path d="M92.5886 367.551H46.7942V413.369H92.5886V367.551Z" fill="#E399DC" stroke="white"/>
<path d="M72.8916 393.696H64.501V382.063H67.501V391.446H72.8916V393.696Z" fill="white"/>
<path d="M92.5886 413.369H46.7942V459.188H92.5886V413.369Z" fill="#E399DC" stroke="white"/>
<path d="M72.4346 439.515H64.0205V427.882H72.4346V430.132H67.0049V432.14H72.0439V434.39H67.0049V437.265H72.4346V439.515Z" fill="white"/>
</svg>
