<svg width="551" height="646" viewBox="0 0 551 646" fill="none" xmlns="http://www.w3.org/2000/svg">
<path d="M87.1446 355.085H9.83533V413.268H87.1446V355.085Z" fill="white"/>
<path d="M164.454 355.085H87.1445V413.268H164.454V355.085Z" fill="white"/>
<path d="M241.763 355.085H164.454V413.268H241.763V355.085Z" fill="white"/>
<path d="M319.072 355.085H241.763V413.268H319.072V355.085Z" fill="white"/>
<path d="M396.382 355.085H319.072V413.268H396.382V355.085Z" fill="white"/>
<path d="M473.691 355.085H396.382V413.268H473.691V355.085Z" fill="white"/>
<path d="M551 355.085H473.691V413.268H551V355.085Z" fill="white"/>
<path d="M241.763 413.268H164.454V471.451H241.763V413.268Z" fill="white"/>
<path d="M396.382 413.268H319.072V471.451H396.382V413.268Z" fill="white"/>
<path d="M241.763 471.451H164.454V529.634H241.763V471.451Z" fill="white"/>
<path d="M241.763 529.634H164.454V587.817H241.763V529.634Z" fill="white"/>
<path d="M241.763 587.817H164.454V646H241.763V587.817Z" fill="white"/>
<path d="M396.382 5.98712H319.072V64.1701H396.382V5.98712Z" fill="white"/>
<path d="M241.763 64.1701H164.454V122.353H241.763V64.1701Z" fill="white"/>
<path d="M396.382 64.1701H319.072V122.353H396.382V64.1701Z" fill="white"/>
<path d="M241.763 122.353H164.454V180.536H241.763V122.353Z" fill="white"/>
<path d="M396.382 122.353H319.072V180.536H396.382V122.353Z" fill="white"/>
<path d="M241.763 180.536H164.454V238.719H241.763V180.536Z" fill="white"/>
<path d="M396.382 180.536H319.072V238.719H396.382V180.536Z" fill="white"/>
<path d="M241.763 238.719H164.454V296.902H241.763V238.719Z" fill="white"/>
<path d="M396.382 238.719H319.072V296.902H396.382V238.719Z" fill="white"/>
<path d="M241.763 296.902H164.454V355.085H241.763V296.902Z" fill="white"/>
<path d="M396.382 296.902H319.072V355.085H396.382V296.902Z" fill="white"/>
<path d="M78.3092 350.098H1V408.281H78.3092V350.098Z" fill="#E399DC" stroke="white"/>
<path d="M36.5782 378.981H33.5939V371.192L31.4376 376.247H29.3673L27.2111 371.192V378.981H24.3829V367.349H27.8673L30.4845 373.184L33.0939 367.349H36.5782V378.981Z" fill="white"/>
<path d="M2.46437 359.189V356.219L5.43437 357.709L2.46437 359.189ZM10.8739 357.428C11.0302 357.568 11.1587 357.744 11.2596 357.955C11.3606 358.167 11.411 358.44 11.411 358.776C11.411 359.108 11.3508 359.412 11.2303 359.689C11.1099 359.966 10.9406 360.206 10.7225 360.411C10.4784 360.639 10.1903 360.809 9.85828 360.919C9.5295 361.027 9.16817 361.08 8.77429 361.08C8.37065 361.08 7.97351 361.032 7.58289 360.934C7.19226 360.84 6.87162 360.735 6.62097 360.621V359.601H6.69421C6.97091 359.783 7.29643 359.935 7.67078 360.055C8.04513 360.175 8.40645 360.236 8.75476 360.236C8.95984 360.236 9.17794 360.202 9.40906 360.133C9.64018 360.065 9.82735 359.964 9.97058 359.83C10.1203 359.687 10.231 359.529 10.3026 359.357C10.3775 359.184 10.4149 358.966 10.4149 358.703C10.4149 358.442 10.3726 358.227 10.288 358.058C10.2066 357.885 10.0927 357.75 9.94617 357.653C9.79968 357.552 9.62227 357.483 9.41394 357.448C9.20561 357.409 8.981 357.389 8.74011 357.389H8.30066V356.578H8.64246C9.13725 356.578 9.53113 356.476 9.8241 356.271C10.1203 356.063 10.2684 355.76 10.2684 355.363C10.2684 355.187 10.231 355.034 10.1561 354.904C10.0813 354.77 9.97709 354.661 9.84363 354.577C9.70365 354.492 9.55391 354.433 9.39441 354.401C9.2349 354.368 9.05424 354.352 8.85242 354.352C8.54317 354.352 8.2144 354.407 7.86609 354.518C7.51778 354.629 7.18901 354.785 6.87976 354.987H6.83093V353.966C7.06205 353.852 7.36967 353.748 7.75378 353.654C8.14115 353.556 8.5155 353.507 8.87683 353.507C9.23165 353.507 9.54415 353.54 9.81433 353.605C10.0845 353.67 10.3287 353.774 10.5468 353.917C10.7811 354.074 10.9585 354.262 11.079 354.484C11.1994 354.705 11.2596 354.964 11.2596 355.26C11.2596 355.664 11.1164 356.017 10.83 356.32C10.5468 356.619 10.2115 356.808 9.8241 356.886V356.954C9.98035 356.981 10.1594 357.036 10.3612 357.12C10.563 357.202 10.7339 357.304 10.8739 357.428Z" fill="white"/>
<path d="M155.618 350.098H78.3092V408.281H155.618V350.098Z" fill="#E399DC" stroke="white"/>
<path d="M114.73 373.169C114.73 375.023 114.199 376.497 113.136 377.591C112.074 378.679 110.605 379.224 108.73 379.224C106.86 379.224 105.394 378.679 104.332 377.591C103.269 376.497 102.738 375.023 102.738 373.169C102.738 371.299 103.269 369.822 104.332 368.739C105.394 367.651 106.86 367.106 108.73 367.106C110.595 367.106 112.061 367.651 113.129 368.739C114.196 369.822 114.73 371.299 114.73 373.169ZM110.754 376.114C111.045 375.76 111.261 375.343 111.402 374.864C111.543 374.38 111.613 373.812 111.613 373.161C111.613 372.463 111.532 371.869 111.371 371.38C111.209 370.89 110.998 370.494 110.738 370.192C110.472 369.88 110.165 369.653 109.816 369.513C109.472 369.372 109.113 369.302 108.738 369.302C108.358 369.302 107.998 369.369 107.66 369.505C107.327 369.64 107.019 369.864 106.738 370.177C106.478 370.468 106.264 370.872 106.097 371.388C105.936 371.898 105.855 372.492 105.855 373.169C105.855 373.862 105.933 374.453 106.09 374.942C106.251 375.427 106.462 375.822 106.722 376.13C106.983 376.437 107.288 376.664 107.636 376.809C107.985 376.955 108.353 377.028 108.738 377.028C109.123 377.028 109.491 376.955 109.84 376.809C110.189 376.658 110.493 376.427 110.754 376.114Z" fill="white"/>
<path d="M232.928 350.098H155.618V408.281H232.928V350.098Z" fill="#E399DC" stroke="white"/>
<path d="M192.082 373.177C192.082 374.26 191.834 375.231 191.339 376.091C190.845 376.945 190.22 377.601 189.464 378.059C188.897 378.403 188.274 378.643 187.597 378.778C186.92 378.914 186.118 378.981 185.191 378.981H181.089V367.349H185.308C186.256 367.349 187.074 367.429 187.761 367.591C188.449 367.747 189.027 367.971 189.496 368.263C190.298 368.752 190.928 369.414 191.386 370.247C191.85 371.075 192.082 372.052 192.082 373.177ZM188.98 373.153C188.98 372.388 188.839 371.734 188.558 371.192C188.282 370.645 187.842 370.218 187.238 369.911C186.931 369.76 186.616 369.658 186.293 369.606C185.975 369.549 185.493 369.52 184.847 369.52H184.089V376.802H184.847C185.561 376.802 186.084 376.77 186.418 376.708C186.751 376.64 187.076 376.52 187.394 376.349C187.941 376.036 188.342 375.619 188.597 375.099C188.852 374.572 188.98 373.924 188.98 373.153Z" fill="white"/>
<path d="M310.237 350.098H232.928V408.281H310.237V350.098Z" fill="#E399DC" stroke="white"/>
<path d="M268.897 374.77C268.897 376.208 268.459 377.309 267.584 378.075C266.709 378.841 265.42 379.224 263.717 379.224C262.014 379.224 260.725 378.841 259.85 378.075C258.98 377.309 258.545 376.21 258.545 374.778V367.349H261.561V374.606C261.561 375.414 261.73 376.015 262.069 376.411C262.407 376.807 262.957 377.005 263.717 377.005C264.467 377.005 265.014 376.815 265.358 376.434C265.707 376.054 265.881 375.445 265.881 374.606V367.349H268.897V374.77Z" fill="white"/>
<path d="M387.546 350.098H310.237V408.281H387.546V350.098Z" fill="#E399DC" stroke="white"/>
<path d="M347.498 378.981H339.107V367.349H342.107V376.731H347.498V378.981Z" fill="white"/>
<path d="M464.855 350.098H387.546V408.281H464.855V350.098Z" fill="#E399DC" stroke="white"/>
<path d="M424.716 378.981H421.615L420.81 376.63H416.498L415.693 378.981H412.669L416.966 367.349H420.419L424.716 378.981ZM420.083 374.497L418.654 370.325L417.224 374.497H420.083Z" fill="white"/>
<path d="M542.165 350.098H464.855V408.281H542.165V350.098Z" fill="#E399DC" stroke="white"/>
<path d="M497.695 370.911C497.695 370.619 497.635 370.369 497.516 370.161C497.396 369.953 497.19 369.789 496.898 369.669C496.695 369.585 496.458 369.536 496.188 369.52C495.917 369.5 495.602 369.489 495.242 369.489H494.156V372.622H495.078C495.557 372.622 495.958 372.599 496.281 372.552C496.604 372.505 496.875 372.398 497.094 372.231C497.302 372.07 497.453 371.893 497.547 371.7C497.646 371.502 497.695 371.239 497.695 370.911ZM502.375 378.981H498.711L495.539 374.716H494.156V378.981H491.172V367.349H496.203C496.891 367.349 497.482 367.388 497.977 367.466C498.471 367.544 498.935 367.713 499.367 367.974C499.805 368.234 500.151 368.572 500.406 368.989C500.667 369.401 500.797 369.919 500.797 370.544C500.797 371.403 500.596 372.104 500.195 372.645C499.799 373.187 499.232 373.638 498.492 373.997L502.375 378.981Z" fill="white"/>
<path d="M232.928 408.281H155.618V466.464H232.928V408.281Z" fill="#E399DC" stroke="white"/>
<path d="M192.4 437.164H185.588V435.102H187.494V427.594H185.588V425.531H192.4V427.594H190.494V435.102H192.4V437.164Z" fill="white"/>
<path d="M387.546 408.281H310.237V466.464H387.546V408.281Z" fill="#E399DC" stroke="white"/>
<path d="M346.71 437.164H338.296V425.531H346.71V427.781H341.281V429.789H346.32V432.039H341.281V434.914H346.71V437.164Z" fill="white"/>
<path d="M232.928 466.464H155.618V524.647H232.928V466.464Z" fill="#E399DC" stroke="white"/>
<path d="M192.25 491.785C192.25 492.347 192.136 492.85 191.907 493.293C191.683 493.735 191.373 494.102 190.977 494.394C190.519 494.738 190.014 494.983 189.461 495.129C188.915 495.274 188.219 495.347 187.375 495.347H182.297V483.714H186.813C187.75 483.714 188.435 483.746 188.868 483.808C189.305 483.871 189.737 484.009 190.165 484.222C190.607 484.446 190.935 484.748 191.149 485.129C191.368 485.504 191.477 485.933 191.477 486.418C191.477 486.98 191.329 487.477 191.032 487.91C190.735 488.337 190.316 488.67 189.774 488.91V488.972C190.534 489.123 191.136 489.436 191.579 489.91C192.027 490.384 192.25 491.009 192.25 491.785ZM188.407 487.004C188.407 486.811 188.357 486.618 188.258 486.425C188.165 486.233 187.995 486.089 187.75 485.996C187.532 485.912 187.258 485.868 186.93 485.863C186.607 485.852 186.152 485.847 185.563 485.847H185.282V488.308H185.75C186.224 488.308 186.628 488.3 186.961 488.285C187.295 488.269 187.558 488.217 187.75 488.129C188.021 488.009 188.198 487.855 188.282 487.668C188.365 487.475 188.407 487.254 188.407 487.004ZM189.141 491.738C189.141 491.368 189.068 491.084 188.922 490.886C188.782 490.683 188.54 490.532 188.196 490.433C187.961 490.366 187.639 490.329 187.227 490.324C186.816 490.319 186.386 490.316 185.938 490.316H185.282V493.214H185.5C186.344 493.214 186.948 493.212 187.313 493.207C187.678 493.201 188.014 493.134 188.321 493.004C188.633 492.873 188.847 492.701 188.961 492.488C189.081 492.269 189.141 492.019 189.141 491.738Z" fill="white"/>
<path d="M232.928 524.647H155.618V582.83H232.928V524.647Z" fill="#E399DC" stroke="white"/>
<path d="M192.88 553.53H184.489V541.898H187.489V551.28H192.88V553.53Z" fill="white"/>
<path d="M232.928 582.83H155.618V641.013H232.928V582.83Z" fill="#E399DC" stroke="white"/>
<path d="M192.092 611.713H183.678V600.08H192.092V602.33H186.662V604.338H191.701V606.588H186.662V609.463H192.092V611.713Z" fill="white"/>
<path d="M387.546 1H310.237V59.183H387.546V1Z" fill="#E399DC" stroke="white"/>
<path d="M347.219 20.5005H341.867V22.6646H346.828V24.9146H341.867V29.8834H338.883V18.2505H347.219V20.5005Z" fill="white"/>
<path d="M313.191 10.0912L311.701 7.12118H314.671L313.191 10.0912ZM320.335 11.8312H316.4V11.089H317.914V6.21594H316.4V5.55188C316.605 5.55188 316.825 5.5356 317.059 5.50305C317.293 5.46724 317.471 5.41679 317.591 5.35168C317.741 5.2703 317.858 5.16777 317.943 5.04407C318.031 4.91711 318.081 4.74784 318.094 4.53625H318.851V11.089H320.335V11.8312Z" fill="white"/>
<path d="M232.928 59.183H155.618V117.366H232.928V59.183Z" fill="#E399DC" stroke="white"/>
<path d="M192.092 88.0663H183.678V76.4335H192.092V78.6835H186.662V80.6913H191.701V82.9413H186.662V85.8163H192.092V88.0663Z" fill="white"/>
<path d="M158.573 68.2742L157.083 65.3042H160.053L158.573 68.2742ZM166.132 70.0142H161.21V68.9937C161.552 68.7007 161.894 68.4077 162.236 68.1147C162.581 67.8218 162.901 67.5304 163.198 67.2407C163.823 66.6353 164.251 66.1551 164.482 65.8003C164.713 65.4422 164.828 65.0565 164.828 64.6431C164.828 64.2655 164.703 63.9709 164.452 63.7593C164.205 63.5444 163.858 63.437 163.412 63.437C163.116 63.437 162.795 63.4891 162.45 63.5933C162.105 63.6974 161.768 63.8569 161.44 64.0718H161.391V63.0464C161.622 62.9325 161.93 62.8283 162.314 62.7339C162.701 62.6395 163.075 62.5923 163.437 62.5923C164.182 62.5923 164.767 62.7729 165.19 63.1343C165.613 63.4924 165.824 63.979 165.824 64.5942C165.824 64.8709 165.789 65.1297 165.717 65.3706C165.649 65.6082 165.546 65.8345 165.409 66.0493C165.282 66.2511 165.133 66.4497 164.96 66.645C164.791 66.8403 164.584 67.0568 164.34 67.2944C163.992 67.6362 163.632 67.9683 163.261 68.2905C162.89 68.6095 162.543 68.9058 162.221 69.1792H166.132V70.0142Z" fill="white"/>
<path d="M387.546 59.183H310.237V117.366H387.546V59.183Z" fill="#E399DC" stroke="white"/>
<path d="M347.498 88.0663H339.107V76.4335H342.107V85.8163H347.498V88.0663Z" fill="white"/>
<path d="M232.928 117.366H155.618V175.549H232.928V117.366Z" fill="#E399DC" stroke="white"/>
<path d="M192.81 146.249H189.341L186.833 142.421L184.278 146.249H180.966L185.091 140.39L181.052 134.617H184.513L186.935 138.242L189.427 134.617H192.747L188.685 140.273L192.81 146.249Z" fill="white"/>
<path d="M387.546 117.366H310.237V175.549H387.546V117.366Z" fill="#E399DC" stroke="white"/>
<path d="M346.71 146.249H338.296V134.617H346.71V136.867H341.281V138.874H346.32V141.124H341.281V143.999H346.71V146.249Z" fill="white"/>
<path d="M232.928 175.549H155.618V233.732H232.928V175.549Z" fill="#E399DC" stroke="white"/>
<path d="M192.814 195.05H189.181V204.432H186.181V195.05H182.548V192.8H192.814V195.05Z" fill="white"/>
<path d="M387.546 175.549H310.237V233.732H387.546V175.549Z" fill="#E399DC" stroke="white"/>
<path d="M347.428 204.432H343.959L341.452 200.604L338.897 204.432H335.584L339.709 198.573L335.67 192.8H339.131L341.553 196.425L344.045 192.8H347.366L343.303 198.456L347.428 204.432Z" fill="white"/>
<path d="M232.928 233.732H155.618V291.915H232.928V233.732Z" fill="#E399DC" stroke="white"/>
<path d="M192.092 262.615H183.678V250.983H192.092V253.233H186.662V255.24H191.701V257.49H186.662V260.365H192.092V262.615Z" fill="white"/>
<path d="M387.546 233.732H310.237V291.915H387.546V233.732Z" fill="#E399DC" stroke="white"/>
<path d="M347.019 262.615H340.206V260.553H342.112V253.045H340.206V250.983H347.019V253.045H345.112V260.553H347.019V262.615Z" fill="white"/>
<path d="M232.928 291.915H155.618V350.098H232.928V291.915Z" fill="#E399DC" stroke="white"/>
<path d="M191.374 320.798H188.484L183.546 312.814V320.798H180.796V309.166H184.382L188.624 315.83V309.166H191.374V320.798Z" fill="white"/>
<path d="M387.546 291.915H310.237V350.098H387.546V291.915Z" fill="#E399DC" stroke="white"/>
<path d="M346.869 317.236C346.869 317.798 346.754 318.301 346.525 318.744C346.301 319.186 345.991 319.554 345.595 319.845C345.137 320.189 344.632 320.434 344.08 320.58C343.533 320.725 342.838 320.798 341.994 320.798H336.916V309.166H341.431C342.369 309.166 343.054 309.197 343.486 309.259C343.924 309.322 344.356 309.46 344.783 309.673C345.226 309.897 345.554 310.199 345.767 310.58C345.986 310.955 346.095 311.384 346.095 311.869C346.095 312.431 345.947 312.929 345.65 313.361C345.353 313.788 344.934 314.121 344.392 314.361V314.423C345.153 314.574 345.754 314.887 346.197 315.361C346.645 315.835 346.869 316.46 346.869 317.236ZM343.025 312.455C343.025 312.262 342.976 312.069 342.877 311.876C342.783 311.684 342.614 311.541 342.369 311.447C342.15 311.363 341.877 311.319 341.549 311.314C341.226 311.304 340.77 311.298 340.181 311.298H339.9V313.759H340.369C340.843 313.759 341.247 313.751 341.58 313.736C341.913 313.72 342.176 313.668 342.369 313.58C342.64 313.46 342.817 313.306 342.9 313.119C342.983 312.926 343.025 312.705 343.025 312.455ZM343.76 317.189C343.76 316.819 343.687 316.535 343.541 316.337C343.4 316.134 343.158 315.983 342.814 315.884C342.58 315.817 342.257 315.78 341.845 315.775C341.434 315.77 341.004 315.767 340.556 315.767H339.9V318.666H340.119C340.963 318.666 341.567 318.663 341.931 318.658C342.296 318.653 342.632 318.585 342.939 318.455C343.252 318.324 343.465 318.153 343.58 317.939C343.7 317.72 343.76 317.47 343.76 317.189Z" fill="white"/>
</svg>
